<svg width="80" height="80" viewBox="0 0 100 100" xmlns="http://www.w3.org/2000/svg">
  <!-- Defining gradient to match app's theme -->
  <defs>
    <linearGradient id="moonGradient" x1="0%" y1="0%" x2="100%" y2="100%">
      <stop offset="0%" style="stop-color:#6C63FF;stop-opacity:1" /> <!-- TColor.primaryColor1 -->
      <stop offset="100%" style="stop-color:#A8A1FF;stop-opacity:1" /> <!-- TColor.primaryColor2 -->
    </linearGradient>
  </defs>
  
  <!-- Background circle for subtle context -->
  <circle cx="50" cy="50" r="45" fill="#F5F5F5" fill-opacity="0.2" /> <!-- TColor.lightGray -->
  
  <!-- Moon shape -->
  <path d="M50 20 C65 20 75 30 75 45 C75 60 65 70 50 70 C45 70 40 68 36 65 C42 70 50 70 50 60 C50 50 42 45 36 50 C40 52 45 55 50 55 C60 55 65 50 65 45 C65 35 60 30 50 30 C45 30 40 32 36 35 C42 30 50 30 50 20 Z" fill="url(#moonGradient)">
    <animateTransform
      attributeName="transform"
      type="rotate"
      from="0 50 50"
      to="360 50 50"
      dur="2s"
      repeatCount="indefinite" />
  </path>
  
  <!-- Orbiting stars -->
  <g>
    <circle cx="75" cy="50" r="3" fill="#FFD700">
      <animateTransform
        attributeName="transform"
        type="rotate"
        from="0 50 50"
        to="360 50 50"
        dur="1.5s"
        repeatCount="indefinite" />
    </circle>
    <circle cx="25" cy="50" r="2" fill="#FFD700">
      <animateTransform
        attributeName="transform"
        type="rotate"
        from="360 50 50"
        to="0 50 50"
        dur="1.8s"
        repeatCount="indefinite" />
    </circle>
    <circle cx="50" cy="25" r="2.5" fill="#FFD700">
      <animateTransform
        attributeName="transform"
        type="rotate"
        from="0 50 50"
        to="360 50 50"
        dur="2.2s"
        repeatCount="indefinite" />
    </circle>
  </g>
</svg>